<svg width="123" height="35" viewBox="0 0 123 35" fill="none" xmlns="http://www.w3.org/2000/svg">
<g opacity="0.7">
<rect width="123" height="35" rx="17.5" fill="#ECECEC"/>
<circle cx="21.6955" cy="17.5884" r="8.1177" fill="#606060"/>
<path d="M38.2076 22.4707V13.3707H42.8616C44.0576 13.3707 44.9503 13.5917 45.5396 14.0337C46.1289 14.467 46.4236 15.039 46.4236 15.7497C46.4236 16.2177 46.2979 16.6294 46.0466 16.9847C45.8039 17.3314 45.4573 17.6087 45.0066 17.8167C44.5646 18.016 44.0359 18.1157 43.4206 18.1157L43.6806 17.4917C44.3219 17.4917 44.8809 17.5914 45.3576 17.7907C45.8343 17.9814 46.2026 18.263 46.4626 18.6357C46.7313 18.9997 46.8656 19.446 46.8656 19.9747C46.8656 20.7634 46.5449 21.3787 45.9036 21.8207C45.2709 22.254 44.3436 22.4707 43.1216 22.4707H38.2076ZM40.7556 20.6117H42.9136C43.3556 20.6117 43.6893 20.538 43.9146 20.3907C44.1486 20.2347 44.2656 20.0007 44.2656 19.6887C44.2656 19.3767 44.1486 19.147 43.9146 18.9997C43.6893 18.8437 43.3556 18.7657 42.9136 18.7657H40.5736V16.9847H42.5236C42.9569 16.9847 43.2819 16.911 43.4986 16.7637C43.7153 16.6164 43.8236 16.3954 43.8236 16.1007C43.8236 15.806 43.7153 15.5894 43.4986 15.4507C43.2819 15.3034 42.9569 15.2297 42.5236 15.2297H40.7556V20.6117ZM48.0818 22.4707V12.8247H50.5518V22.4707H48.0818ZM56.46 22.4707V21.1577L56.291 20.8327V18.4147C56.291 18.0247 56.1697 17.7257 55.927 17.5177C55.693 17.301 55.316 17.1927 54.796 17.1927C54.458 17.1927 54.1157 17.249 53.769 17.3617C53.4223 17.4657 53.1277 17.613 52.885 17.8037L52.053 16.1267C52.4517 15.8667 52.9283 15.6674 53.483 15.5287C54.0463 15.3814 54.6053 15.3077 55.16 15.3077C56.304 15.3077 57.188 15.572 57.812 16.1007C58.4447 16.6207 58.761 17.4397 58.761 18.5577V22.4707H56.46ZM54.38 22.5877C53.8167 22.5877 53.34 22.4924 52.95 22.3017C52.56 22.111 52.261 21.851 52.053 21.5217C51.8537 21.1924 51.754 20.824 51.754 20.4167C51.754 19.9834 51.8623 19.6107 52.079 19.2987C52.3043 18.978 52.6467 18.7354 53.106 18.5707C53.5653 18.3974 54.159 18.3107 54.887 18.3107H56.551V19.5977H55.225C54.8263 19.5977 54.5447 19.6627 54.38 19.7927C54.224 19.9227 54.146 20.096 54.146 20.3127C54.146 20.5294 54.2283 20.7027 54.393 20.8327C54.5577 20.9627 54.783 21.0277 55.069 21.0277C55.3377 21.0277 55.5803 20.9627 55.797 20.8327C56.0223 20.694 56.187 20.486 56.291 20.2087L56.629 21.1187C56.499 21.604 56.2433 21.9724 55.862 22.2237C55.4893 22.4664 54.9953 22.5877 54.38 22.5877ZM64.01 22.5877C63.23 22.5877 62.5323 22.4317 61.917 22.1197C61.3103 21.8077 60.8336 21.3787 60.487 20.8327C60.1403 20.278 59.967 19.6454 59.967 18.9347C59.967 18.224 60.1403 17.5957 60.487 17.0497C60.8336 16.5037 61.3103 16.079 61.917 15.7757C62.5323 15.4637 63.23 15.3077 64.01 15.3077C64.8073 15.3077 65.4963 15.4767 66.077 15.8147C66.6576 16.1527 67.0693 16.6294 67.312 17.2447L65.401 18.2197C65.2363 17.8904 65.0326 17.652 64.79 17.5047C64.5473 17.3487 64.283 17.2707 63.997 17.2707C63.711 17.2707 63.451 17.3357 63.217 17.4657C62.983 17.5957 62.7966 17.7864 62.658 18.0377C62.528 18.2804 62.463 18.5794 62.463 18.9347C62.463 19.2987 62.528 19.6064 62.658 19.8577C62.7966 20.109 62.983 20.2997 63.217 20.4297C63.451 20.5597 63.711 20.6247 63.997 20.6247C64.283 20.6247 64.5473 20.551 64.79 20.4037C65.0326 20.2477 65.2363 20.005 65.401 19.6757L67.312 20.6507C67.0693 21.266 66.6576 21.7427 66.077 22.0807C65.4963 22.4187 64.8073 22.5877 64.01 22.5877ZM70.2706 21.1707L70.3356 18.2197L73.2086 15.4247H76.1336L72.9486 18.7137L71.6876 19.7277L70.2706 21.1707ZM68.2166 22.4707V12.8247H70.6866V22.4707H68.2166ZM73.3906 22.4707L71.2326 19.7667L72.7666 17.8687L76.3806 22.4707H73.3906ZM85.5009 15.3077C86.0469 15.3077 86.5409 15.4204 86.9829 15.6457C87.4249 15.8624 87.7716 16.2004 88.0229 16.6597C88.2829 17.119 88.4129 17.7127 88.4129 18.4407V22.4707H85.9429V18.8437C85.9429 18.341 85.8389 17.977 85.6309 17.7517C85.4316 17.5177 85.1499 17.4007 84.7859 17.4007C84.5259 17.4007 84.2876 17.4614 84.0709 17.5827C83.8542 17.6954 83.6852 17.873 83.5639 18.1157C83.4426 18.3584 83.3819 18.6747 83.3819 19.0647V22.4707H80.9119V12.8247H83.3819V17.4267L82.8099 16.8417C83.0786 16.3304 83.4469 15.949 83.9149 15.6977C84.3829 15.4377 84.9116 15.3077 85.5009 15.3077ZM93.5885 22.5877C92.8172 22.5877 92.1325 22.4317 91.5345 22.1197C90.9365 21.8077 90.4642 21.3787 90.1175 20.8327C89.7795 20.278 89.6105 19.6454 89.6105 18.9347C89.6105 18.224 89.7795 17.5957 90.1175 17.0497C90.4642 16.5037 90.9365 16.079 91.5345 15.7757C92.1325 15.4637 92.8172 15.3077 93.5885 15.3077C94.3599 15.3077 95.0445 15.4637 95.6425 15.7757C96.2492 16.079 96.7215 16.5037 97.0595 17.0497C97.3975 17.5957 97.5665 18.224 97.5665 18.9347C97.5665 19.6454 97.3975 20.278 97.0595 20.8327C96.7215 21.3787 96.2492 21.8077 95.6425 22.1197C95.0445 22.4317 94.3599 22.5877 93.5885 22.5877ZM93.5885 20.6247C93.8745 20.6247 94.1259 20.5597 94.3425 20.4297C94.5679 20.2997 94.7455 20.109 94.8755 19.8577C95.0055 19.5977 95.0705 19.29 95.0705 18.9347C95.0705 18.5794 95.0055 18.2804 94.8755 18.0377C94.7455 17.7864 94.5679 17.5957 94.3425 17.4657C94.1259 17.3357 93.8745 17.2707 93.5885 17.2707C93.3112 17.2707 93.0599 17.3357 92.8345 17.4657C92.6179 17.5957 92.4402 17.7864 92.3015 18.0377C92.1715 18.2804 92.1065 18.5794 92.1065 18.9347C92.1065 19.29 92.1715 19.5977 92.3015 19.8577C92.4402 20.109 92.6179 20.2997 92.8345 20.4297C93.0599 20.5597 93.3112 20.6247 93.5885 20.6247ZM98.7107 22.4707V12.8247H101.181V22.4707H98.7107ZM106.478 22.5877C105.646 22.5877 104.918 22.4317 104.294 22.1197C103.679 21.799 103.198 21.3657 102.851 20.8197C102.513 20.265 102.344 19.6367 102.344 18.9347C102.344 18.2327 102.509 17.6087 102.838 17.0627C103.176 16.508 103.64 16.079 104.229 15.7757C104.818 15.4637 105.481 15.3077 106.218 15.3077C106.911 15.3077 107.544 15.4507 108.116 15.7367C108.688 16.014 109.143 16.4257 109.481 16.9717C109.819 17.5177 109.988 18.1807 109.988 18.9607C109.988 19.0474 109.984 19.147 109.975 19.2597C109.966 19.3724 109.958 19.4764 109.949 19.5717H104.372V18.2717H108.636L107.7 18.6357C107.709 18.315 107.648 18.0377 107.518 17.8037C107.397 17.5697 107.223 17.3877 106.998 17.2577C106.781 17.1277 106.526 17.0627 106.231 17.0627C105.936 17.0627 105.676 17.1277 105.451 17.2577C105.234 17.3877 105.065 17.574 104.944 17.8167C104.823 18.0507 104.762 18.328 104.762 18.6487V19.0257C104.762 19.3724 104.831 19.6714 104.97 19.9227C105.117 20.174 105.325 20.369 105.594 20.5077C105.863 20.6377 106.183 20.7027 106.556 20.7027C106.903 20.7027 107.197 20.655 107.44 20.5597C107.691 20.4557 107.938 20.2997 108.181 20.0917L109.481 21.4437C109.143 21.8164 108.727 22.1024 108.233 22.3017C107.739 22.4924 107.154 22.5877 106.478 22.5877Z" fill="#606060"/>
</g>
</svg>
