<svg width="99" height="35" viewBox="0 0 99 35" fill="none" xmlns="http://www.w3.org/2000/svg">
<g opacity="0.7">
<rect width="99" height="35" rx="17.5" fill="#FFFCE0"/>
<circle cx="21.5828" cy="17.5354" r="8.0935" fill="#F8BD27"/>
<path d="M43.1233 22.6239C42.4039 22.6239 41.7366 22.5112 41.1213 22.2859C40.5146 22.0519 39.9859 21.7226 39.5353 21.2979C39.0933 20.8732 38.7466 20.3749 38.4953 19.8029C38.2439 19.2222 38.1183 18.5852 38.1183 17.8919C38.1183 17.1986 38.2439 16.5659 38.4953 15.9939C38.7466 15.4132 39.0933 14.9106 39.5353 14.4859C39.9859 14.0612 40.5146 13.7362 41.1213 13.5109C41.7366 13.2769 42.4039 13.1599 43.1233 13.1599C43.9639 13.1599 44.7136 13.3072 45.3723 13.6019C46.0396 13.8966 46.5943 14.3212 47.0363 14.8759L45.3983 16.3579C45.1036 16.0112 44.7786 15.7469 44.4233 15.5649C44.0766 15.3829 43.6866 15.2919 43.2533 15.2919C42.8806 15.2919 42.5383 15.3526 42.2263 15.4739C41.9143 15.5952 41.6456 15.7729 41.4203 16.0069C41.2036 16.2322 41.0303 16.5052 40.9003 16.8259C40.7789 17.1466 40.7183 17.5019 40.7183 17.8919C40.7183 18.2819 40.7789 18.6372 40.9003 18.9579C41.0303 19.2786 41.2036 19.5559 41.4203 19.7899C41.6456 20.0152 41.9143 20.1886 42.2263 20.3099C42.5383 20.4312 42.8806 20.4919 43.2533 20.4919C43.6866 20.4919 44.0766 20.4009 44.4233 20.2189C44.7786 20.0369 45.1036 19.7726 45.3983 19.4259L47.0363 20.9079C46.5943 21.4539 46.0396 21.8786 45.3723 22.1819C44.7136 22.4766 43.9639 22.6239 43.1233 22.6239ZM51.3744 22.5589C50.6031 22.5589 49.9184 22.4029 49.3204 22.0909C48.7224 21.7789 48.2501 21.3499 47.9034 20.8039C47.5654 20.2492 47.3964 19.6166 47.3964 18.9059C47.3964 18.1952 47.5654 17.5669 47.9034 17.0209C48.2501 16.4749 48.7224 16.0502 49.3204 15.7469C49.9184 15.4349 50.6031 15.2789 51.3744 15.2789C52.1457 15.2789 52.8304 15.4349 53.4284 15.7469C54.0351 16.0502 54.5074 16.4749 54.8454 17.0209C55.1834 17.5669 55.3524 18.1952 55.3524 18.9059C55.3524 19.6166 55.1834 20.2492 54.8454 20.8039C54.5074 21.3499 54.0351 21.7789 53.4284 22.0909C52.8304 22.4029 52.1457 22.5589 51.3744 22.5589ZM51.3744 20.5959C51.6604 20.5959 51.9117 20.5309 52.1284 20.4009C52.3537 20.2709 52.5314 20.0802 52.6614 19.8289C52.7914 19.5689 52.8564 19.2612 52.8564 18.9059C52.8564 18.5506 52.7914 18.2516 52.6614 18.0089C52.5314 17.7576 52.3537 17.5669 52.1284 17.4369C51.9117 17.3069 51.6604 17.2419 51.3744 17.2419C51.0971 17.2419 50.8457 17.3069 50.6204 17.4369C50.4037 17.5669 50.2261 17.7576 50.0874 18.0089C49.9574 18.2516 49.8924 18.5506 49.8924 18.9059C49.8924 19.2612 49.9574 19.5689 50.0874 19.8289C50.2261 20.0802 50.4037 20.2709 50.6204 20.4009C50.8457 20.5309 51.0971 20.5959 51.3744 20.5959ZM65.6746 15.2789C66.2206 15.2789 66.7059 15.3916 67.1306 15.6169C67.5639 15.8336 67.9019 16.1716 68.1446 16.6309C68.3959 17.0902 68.5216 17.6839 68.5216 18.4119V22.4419H66.0516V18.8149C66.0516 18.3122 65.9563 17.9482 65.7656 17.7229C65.5749 17.4889 65.3149 17.3719 64.9856 17.3719C64.7516 17.3719 64.5393 17.4282 64.3486 17.5409C64.1579 17.6536 64.0106 17.8269 63.9066 18.0609C63.8026 18.2862 63.7506 18.5809 63.7506 18.9449V22.4419H61.2806V18.8149C61.2806 18.3122 61.1853 17.9482 60.9946 17.7229C60.8126 17.4889 60.5526 17.3719 60.2146 17.3719C59.9719 17.3719 59.7553 17.4282 59.5646 17.5409C59.3826 17.6536 59.2353 17.8269 59.1226 18.0609C59.0186 18.2862 58.9666 18.5809 58.9666 18.9449V22.4419H56.4966V15.3959H58.8496V17.3589L58.3816 16.7999C58.6416 16.2972 58.9969 15.9202 59.4476 15.6689C59.8983 15.4089 60.4009 15.2789 60.9556 15.2789C61.5883 15.2789 62.1429 15.4436 62.6196 15.7729C63.1049 16.0936 63.4299 16.5962 63.5946 17.2809L62.7886 17.1119C63.0399 16.5399 63.4169 16.0936 63.9196 15.7729C64.4309 15.4436 65.0159 15.2789 65.6746 15.2789ZM73.8615 22.5589C73.0295 22.5589 72.3015 22.4029 71.6775 22.0909C71.0621 21.7702 70.5811 21.3369 70.2345 20.7909C69.8965 20.2362 69.7275 19.6079 69.7275 18.9059C69.7275 18.2039 69.8921 17.5799 70.2215 17.0339C70.5595 16.4792 71.0231 16.0502 71.6125 15.7469C72.2018 15.4349 72.8648 15.2789 73.6015 15.2789C74.2948 15.2789 74.9275 15.4219 75.4995 15.7079C76.0715 15.9852 76.5265 16.3969 76.8645 16.9429C77.2025 17.4889 77.3715 18.1519 77.3715 18.9319C77.3715 19.0186 77.3671 19.1182 77.3585 19.2309C77.3498 19.3436 77.3411 19.4476 77.3325 19.5429H71.7555V18.2429H76.0195L75.0835 18.6069C75.0921 18.2862 75.0315 18.0089 74.9015 17.7749C74.7801 17.5409 74.6068 17.3589 74.3815 17.2289C74.1648 17.0989 73.9091 17.0339 73.6145 17.0339C73.3198 17.0339 73.0598 17.0989 72.8345 17.2289C72.6178 17.3589 72.4488 17.5452 72.3275 17.7879C72.2061 18.0219 72.1455 18.2992 72.1455 18.6199V18.9969C72.1455 19.3436 72.2148 19.6426 72.3535 19.8939C72.5008 20.1452 72.7088 20.3402 72.9775 20.4789C73.2461 20.6089 73.5668 20.6739 73.9395 20.6739C74.2861 20.6739 74.5808 20.6262 74.8235 20.5309C75.0748 20.4269 75.3218 20.2709 75.5645 20.0629L76.8645 21.4149C76.5265 21.7876 76.1105 22.0736 75.6165 22.2729C75.1225 22.4636 74.5375 22.5589 73.8615 22.5589ZM81.6563 22.5589C80.755 22.5589 80.053 22.3379 79.5503 21.8959C79.0476 21.4452 78.7963 20.7692 78.7963 19.8679V13.8229H81.2663V19.8419C81.2663 20.0932 81.3356 20.2926 81.4743 20.4399C81.613 20.5786 81.7906 20.6479 82.0073 20.6479C82.302 20.6479 82.5533 20.5742 82.7613 20.4269L83.3723 22.1559C83.1643 22.2946 82.9086 22.3942 82.6053 22.4549C82.302 22.5242 81.9856 22.5589 81.6563 22.5589ZM77.7693 17.5019V15.6559H82.8783V17.5019H77.7693Z" fill="#F8BD27"/>
</g>
</svg>
