<svg width="91" height="35" viewBox="0 0 91 35" fill="none" xmlns="http://www.w3.org/2000/svg">
<g opacity="0.7">
<rect width="91" height="35" rx="17.5" fill="#D8F1DD"/>
<circle cx="21.5384" cy="17.5003" r="8.07692" fill="#5FA95D"/>
<path d="M40.6312 16.9893H45.0122V18.6273H40.6312V16.9893ZM40.7872 20.7333H45.7402V22.4233H38.6942V13.3233H45.5712V15.0133H40.7872V20.7333ZM51.5248 22.4233V21.0583L51.3948 20.7593V18.3153C51.3948 17.882 51.2605 17.544 50.9918 17.3013C50.7318 17.0587 50.3288 16.9373 49.7828 16.9373C49.4102 16.9373 49.0418 16.998 48.6778 17.1193C48.3225 17.232 48.0192 17.388 47.7678 17.5873L47.0398 16.1703C47.4212 15.9017 47.8805 15.6937 48.4178 15.5463C48.9552 15.399 49.5012 15.3253 50.0558 15.3253C51.1218 15.3253 51.9495 15.5767 52.5388 16.0793C53.1282 16.582 53.4228 17.3663 53.4228 18.4323V22.4233H51.5248ZM49.3928 22.5273C48.8468 22.5273 48.3788 22.4363 47.9888 22.2543C47.5988 22.0637 47.2998 21.808 47.0918 21.4873C46.8838 21.1667 46.7798 20.807 46.7798 20.4083C46.7798 19.9923 46.8795 19.6283 47.0788 19.3163C47.2868 19.0043 47.6118 18.7617 48.0538 18.5883C48.4958 18.4063 49.0722 18.3153 49.7828 18.3153H51.6418V19.4983H50.0038C49.5272 19.4983 49.1978 19.5763 49.0158 19.7323C48.8425 19.8883 48.7558 20.0833 48.7558 20.3173C48.7558 20.5773 48.8555 20.7853 49.0548 20.9413C49.2628 21.0887 49.5445 21.1623 49.8998 21.1623C50.2378 21.1623 50.5412 21.0843 50.8098 20.9283C51.0785 20.7637 51.2735 20.5253 51.3948 20.2133L51.7068 21.1493C51.5595 21.6 51.2908 21.9423 50.9008 22.1763C50.5108 22.4103 50.0082 22.5273 49.3928 22.5273ZM55.2583 22.4233V15.4293H57.1953V17.4053L56.9223 16.8333C57.1303 16.3393 57.4639 15.9667 57.9233 15.7153C58.3826 15.4553 58.9416 15.3253 59.6003 15.3253V17.1973C59.5136 17.1887 59.4356 17.1843 59.3663 17.1843C59.2969 17.1757 59.2233 17.1713 59.1453 17.1713C58.5906 17.1713 58.1399 17.3317 57.7933 17.6523C57.4553 17.9643 57.2863 18.454 57.2863 19.1213V22.4233H55.2583ZM63.9073 22.5273C63.084 22.5273 62.4427 22.3193 61.9833 21.9033C61.524 21.4787 61.2943 20.8503 61.2943 20.0183V13.8823H63.3223V19.9923C63.3223 20.287 63.4003 20.5167 63.5563 20.6813C63.7123 20.8373 63.9247 20.9153 64.1933 20.9153C64.514 20.9153 64.787 20.8287 65.0123 20.6553L65.5583 22.0853C65.3503 22.2327 65.099 22.3453 64.8043 22.4233C64.5183 22.4927 64.2193 22.5273 63.9073 22.5273ZM60.2153 17.1453V15.5853H65.0643V17.1453H60.2153ZM70.9477 15.3253C71.5024 15.3253 71.9964 15.438 72.4297 15.6633C72.8717 15.88 73.2184 16.218 73.4697 16.6773C73.7211 17.128 73.8467 17.7087 73.8467 18.4193V22.4233H71.8187V18.7313C71.8187 18.168 71.6931 17.752 71.4417 17.4833C71.1991 17.2147 70.8524 17.0803 70.4017 17.0803C70.0811 17.0803 69.7907 17.1497 69.5307 17.2883C69.2794 17.4183 69.0801 17.622 68.9327 17.8993C68.7941 18.1767 68.7247 18.532 68.7247 18.9653V22.4233H66.6967V12.7773H68.7247V17.3663L68.2697 16.7813C68.5211 16.3133 68.8807 15.9537 69.3487 15.7023C69.8167 15.451 70.3497 15.3253 70.9477 15.3253Z" fill="#5FA95D"/>
</g>
</svg>
