<svg width="102" height="35" viewBox="0 0 102 35" fill="none" xmlns="http://www.w3.org/2000/svg">
<g opacity="0.7">
<rect width="101.196" height="35" rx="17.5" fill="#FFEFE0"/>
<circle cx="21.5383" cy="17.4998" r="8.07692" fill="#EC864D"/>
<path d="M40.123 21.6049C39.4557 21.6049 38.849 21.4922 38.303 21.2669C37.7657 21.0329 37.3193 20.6992 36.964 20.2659L38.368 18.6019C38.6107 18.9139 38.862 19.1522 39.122 19.3169C39.382 19.4729 39.655 19.5509 39.941 19.5509C40.7037 19.5509 41.085 19.1089 41.085 18.2249V14.3119H37.939V12.3229H43.633V18.0689C43.633 19.2562 43.334 20.1445 42.736 20.7339C42.138 21.3145 41.267 21.6049 40.123 21.6049ZM48.2173 21.5399C47.6453 21.5399 47.1297 21.4272 46.6703 21.2019C46.2197 20.9765 45.8643 20.6255 45.6043 20.1489C45.353 19.6635 45.2273 19.0525 45.2273 18.3159V14.3769H47.6973V17.9129C47.6973 18.4589 47.797 18.8489 47.9963 19.0829C48.2043 19.3169 48.4947 19.4339 48.8673 19.4339C49.11 19.4339 49.331 19.3775 49.5303 19.2649C49.7297 19.1522 49.89 18.9745 50.0113 18.7319C50.1327 18.4805 50.1933 18.1599 50.1933 17.7699V14.3769H52.6633V21.4229H50.3103V19.4339L50.7653 19.9929C50.5227 20.5129 50.1717 20.9029 49.7123 21.1629C49.253 21.4142 48.7547 21.5399 48.2173 21.5399ZM58.6873 21.5399C58.0893 21.5399 57.578 21.4099 57.1533 21.1499C56.7286 20.8812 56.4036 20.4825 56.1783 19.9539C55.9616 19.4165 55.8533 18.7319 55.8533 17.8999C55.8533 17.0592 55.9573 16.3745 56.1653 15.8459C56.3733 15.3085 56.6853 14.9099 57.1013 14.6499C57.526 14.3899 58.0546 14.2599 58.6873 14.2599C59.3286 14.2599 59.9093 14.4115 60.4293 14.7149C60.958 15.0095 61.374 15.4299 61.6773 15.9759C61.9893 16.5132 62.1453 17.1545 62.1453 17.8999C62.1453 18.6452 61.9893 19.2909 61.6773 19.8369C61.374 20.3829 60.958 20.8032 60.4293 21.0979C59.9093 21.3925 59.3286 21.5399 58.6873 21.5399ZM54.2543 23.9449V14.3769H56.6073V15.5729L56.5943 17.8999L56.7243 20.2399V23.9449H54.2543ZM58.1673 19.5769C58.4446 19.5769 58.6916 19.5119 58.9083 19.3819C59.1336 19.2519 59.3113 19.0612 59.4413 18.8099C59.58 18.5585 59.6493 18.2552 59.6493 17.8999C59.6493 17.5445 59.58 17.2412 59.4413 16.9899C59.3113 16.7385 59.1336 16.5479 58.9083 16.4179C58.6916 16.2879 58.4446 16.2229 58.1673 16.2229C57.89 16.2229 57.6386 16.2879 57.4133 16.4179C57.1966 16.5479 57.019 16.7385 56.8803 16.9899C56.7503 17.2412 56.6853 17.5445 56.6853 17.8999C56.6853 18.2552 56.7503 18.5585 56.8803 18.8099C57.019 19.0612 57.1966 19.2519 57.4133 19.3819C57.6386 19.5119 57.89 19.5769 58.1673 19.5769ZM63.2934 21.4229V14.3769H65.7634V21.4229H63.2934ZM64.5284 13.5969C64.0777 13.5969 63.7137 13.4712 63.4364 13.2199C63.159 12.9685 63.0204 12.6565 63.0204 12.2839C63.0204 11.9112 63.159 11.5992 63.4364 11.3479C63.7137 11.0965 64.0777 10.9709 64.5284 10.9709C64.979 10.9709 65.343 11.0922 65.6204 11.3349C65.8977 11.5689 66.0364 11.8722 66.0364 12.2449C66.0364 12.6349 65.8977 12.9599 65.6204 13.2199C65.3517 13.4712 64.9877 13.5969 64.5284 13.5969ZM70.5146 21.5399C69.6132 21.5399 68.9112 21.3189 68.4086 20.8769C67.9059 20.4262 67.6546 19.7502 67.6546 18.8489V12.8039H70.1246V18.8229C70.1246 19.0742 70.1939 19.2735 70.3326 19.4209C70.4712 19.5595 70.6489 19.6289 70.8656 19.6289C71.1602 19.6289 71.4116 19.5552 71.6196 19.4079L72.2306 21.1369C72.0226 21.2755 71.7669 21.3752 71.4636 21.4359C71.1602 21.5052 70.8439 21.5399 70.5146 21.5399ZM66.6276 16.4829V14.6369H71.7366V16.4829H66.6276ZM76.6719 21.5399C75.8399 21.5399 75.1119 21.3839 74.4879 21.0719C73.8726 20.7512 73.3916 20.3179 73.0449 19.7719C72.7069 19.2172 72.5379 18.5889 72.5379 17.8869C72.5379 17.1849 72.7026 16.5609 73.0319 16.0149C73.3699 15.4602 73.8336 15.0312 74.4229 14.7279C75.0122 14.4159 75.6752 14.2599 76.4119 14.2599C77.1052 14.2599 77.7379 14.4029 78.3099 14.6889C78.8819 14.9662 79.3369 15.3779 79.6749 15.9239C80.0129 16.4699 80.1819 17.1329 80.1819 17.9129C80.1819 17.9995 80.1776 18.0992 80.1689 18.2119C80.1602 18.3245 80.1516 18.4285 80.1429 18.5239H74.5659V17.2239H78.8299L77.8939 17.5879C77.9026 17.2672 77.8419 16.9899 77.7119 16.7559C77.5906 16.5219 77.4172 16.3399 77.1919 16.2099C76.9752 16.0799 76.7196 16.0149 76.4249 16.0149C76.1302 16.0149 75.8702 16.0799 75.6449 16.2099C75.4282 16.3399 75.2592 16.5262 75.1379 16.7689C75.0166 17.0029 74.9559 17.2802 74.9559 17.6009V17.9779C74.9559 18.3245 75.0252 18.6235 75.1639 18.8749C75.3112 19.1262 75.5192 19.3212 75.7879 19.4599C76.0566 19.5899 76.3772 19.6549 76.7499 19.6549C77.0966 19.6549 77.3912 19.6072 77.6339 19.5119C77.8852 19.4079 78.1322 19.2519 78.3749 19.0439L79.6749 20.3959C79.3369 20.7685 78.9209 21.0545 78.4269 21.2539C77.9329 21.4445 77.3479 21.5399 76.6719 21.5399ZM81.3207 21.4229V14.3769H83.6737V16.4309L83.3227 15.8459C83.5307 15.3172 83.8687 14.9229 84.3367 14.6629C84.8047 14.3942 85.3724 14.2599 86.0397 14.2599V16.4829C85.927 16.4655 85.8274 16.4569 85.7407 16.4569C85.6627 16.4482 85.576 16.4439 85.4807 16.4439C84.978 16.4439 84.5707 16.5825 84.2587 16.8599C83.9467 17.1285 83.7907 17.5705 83.7907 18.1859V21.4229H81.3207Z" fill="#EC864D"/>
</g>
</svg>
