<svg width="88" height="34" viewBox="0 0 88 34" fill="none" xmlns="http://www.w3.org/2000/svg">
<g opacity="0.7">
<rect width="88" height="34" rx="17" fill="#D8F2FF"/>
<circle cx="21.0203" cy="17.0788" r="7.88256" fill="#6DC3F3"/>
<path d="M37.8128 22.1963V13.0963H39.9318L43.7018 19.2843H42.5838L46.2498 13.0963H48.3688L48.3948 22.1963H46.0288L46.0028 16.6973H46.4058L43.6628 21.2993H42.5188L39.6978 16.6973H40.1918V22.1963H37.8128ZM53.6352 22.3133C52.8638 22.3133 52.1792 22.1573 51.5812 21.8453C50.9832 21.5333 50.5108 21.1043 50.1642 20.5583C49.8262 20.0036 49.6572 19.371 49.6572 18.6603C49.6572 17.9496 49.8262 17.3213 50.1642 16.7753C50.5108 16.2293 50.9832 15.8046 51.5812 15.5013C52.1792 15.1893 52.8638 15.0333 53.6352 15.0333C54.4065 15.0333 55.0912 15.1893 55.6892 15.5013C56.2958 15.8046 56.7682 16.2293 57.1062 16.7753C57.4442 17.3213 57.6132 17.9496 57.6132 18.6603C57.6132 19.371 57.4442 20.0036 57.1062 20.5583C56.7682 21.1043 56.2958 21.5333 55.6892 21.8453C55.0912 22.1573 54.4065 22.3133 53.6352 22.3133ZM53.6352 20.3503C53.9212 20.3503 54.1725 20.2853 54.3892 20.1553C54.6145 20.0253 54.7922 19.8346 54.9222 19.5833C55.0522 19.3233 55.1172 19.0156 55.1172 18.6603C55.1172 18.305 55.0522 18.006 54.9222 17.7633C54.7922 17.512 54.6145 17.3213 54.3892 17.1913C54.1725 17.0613 53.9212 16.9963 53.6352 16.9963C53.3578 16.9963 53.1065 17.0613 52.8812 17.1913C52.6645 17.3213 52.4868 17.512 52.3482 17.7633C52.2182 18.006 52.1532 18.305 52.1532 18.6603C52.1532 19.0156 52.2182 19.3233 52.3482 19.5833C52.4868 19.8346 52.6645 20.0253 52.8812 20.1553C53.1065 20.2853 53.3578 20.3503 53.6352 20.3503ZM62.2934 22.3133C61.522 22.3133 60.8374 22.1573 60.2394 21.8453C59.6414 21.5333 59.169 21.1043 58.8224 20.5583C58.4844 20.0036 58.3154 19.371 58.3154 18.6603C58.3154 17.9496 58.4844 17.3213 58.8224 16.7753C59.169 16.2293 59.6414 15.8046 60.2394 15.5013C60.8374 15.1893 61.522 15.0333 62.2934 15.0333C63.0647 15.0333 63.7494 15.1893 64.3474 15.5013C64.954 15.8046 65.4264 16.2293 65.7644 16.7753C66.1024 17.3213 66.2714 17.9496 66.2714 18.6603C66.2714 19.371 66.1024 20.0036 65.7644 20.5583C65.4264 21.1043 64.954 21.5333 64.3474 21.8453C63.7494 22.1573 63.0647 22.3133 62.2934 22.3133ZM62.2934 20.3503C62.5794 20.3503 62.8307 20.2853 63.0474 20.1553C63.2727 20.0253 63.4504 19.8346 63.5804 19.5833C63.7104 19.3233 63.7754 19.0156 63.7754 18.6603C63.7754 18.305 63.7104 18.006 63.5804 17.7633C63.4504 17.512 63.2727 17.3213 63.0474 17.1913C62.8307 17.0613 62.5794 16.9963 62.2934 16.9963C62.016 16.9963 61.7647 17.0613 61.5394 17.1913C61.3227 17.3213 61.145 17.512 61.0064 17.7633C60.8764 18.006 60.8114 18.305 60.8114 18.6603C60.8114 19.0156 60.8764 19.3233 61.0064 19.5833C61.145 19.8346 61.3227 20.0253 61.5394 20.1553C61.7647 20.2853 62.016 20.3503 62.2934 20.3503ZM72.0046 15.0333C72.5506 15.0333 73.0446 15.146 73.4866 15.3713C73.9286 15.588 74.2752 15.926 74.5266 16.3853C74.7866 16.8446 74.9166 17.4383 74.9166 18.1663V22.1963H72.4466V18.5693C72.4466 18.0666 72.3426 17.7026 72.1346 17.4773C71.9352 17.2433 71.6536 17.1263 71.2896 17.1263C71.0296 17.1263 70.7912 17.187 70.5746 17.3083C70.3579 17.421 70.1889 17.5986 70.0676 17.8413C69.9462 18.084 69.8856 18.4003 69.8856 18.7903V22.1963H67.4156V15.1503H69.7686V17.1523L69.3136 16.5673C69.5822 16.056 69.9506 15.6746 70.4186 15.4233C70.8866 15.1633 71.4152 15.0333 72.0046 15.0333Z" fill="#6DC3F3"/>
</g>
</svg>
