<svg width="99" height="36" viewBox="0 0 99 36" fill="none" xmlns="http://www.w3.org/2000/svg">
<g opacity="0.7">
<rect width="98.1414" height="35.7569" rx="17.8785" fill="#EFE0FF"/>
<circle cx="22.0043" cy="17.8781" r="8.2516" fill="#AC70E8"/>
<path d="M41.9718 22.8085C41.2264 22.8085 40.5071 22.7175 39.8138 22.5355C39.1291 22.3448 38.5701 22.1021 38.1368 21.8075L38.9818 19.9095C39.3891 20.1695 39.8571 20.3861 40.3858 20.5595C40.9231 20.7241 41.4561 20.8065 41.9848 20.8065C42.3401 20.8065 42.6261 20.7761 42.8428 20.7155C43.0594 20.6461 43.2154 20.5595 43.3108 20.4555C43.4148 20.3428 43.4668 20.2128 43.4668 20.0655C43.4668 19.8575 43.3714 19.6928 43.1808 19.5715C42.9901 19.4501 42.7431 19.3505 42.4398 19.2725C42.1364 19.1945 41.7984 19.1165 41.4258 19.0385C41.0618 18.9605 40.6934 18.8608 40.3208 18.7395C39.9568 18.6181 39.6231 18.4621 39.3198 18.2715C39.0164 18.0721 38.7694 17.8165 38.5788 17.5045C38.3881 17.1838 38.2928 16.7808 38.2928 16.2955C38.2928 15.7495 38.4401 15.2555 38.7348 14.8135C39.0381 14.3715 39.4888 14.0161 40.0868 13.7475C40.6848 13.4788 41.4301 13.3445 42.3228 13.3445C42.9208 13.3445 43.5058 13.4138 44.0778 13.5525C44.6584 13.6825 45.1741 13.8775 45.6248 14.1375L44.8318 16.0485C44.3984 15.8145 43.9694 15.6411 43.5448 15.5285C43.1201 15.4071 42.7084 15.3465 42.3098 15.3465C41.9544 15.3465 41.6684 15.3855 41.4518 15.4635C41.2351 15.5328 41.0791 15.6281 40.9838 15.7495C40.8884 15.8708 40.8408 16.0095 40.8408 16.1655C40.8408 16.3648 40.9318 16.5251 41.1138 16.6465C41.3044 16.7591 41.5514 16.8545 41.8548 16.9325C42.1668 17.0018 42.5048 17.0755 42.8688 17.1535C43.2414 17.2315 43.6098 17.3311 43.9738 17.4525C44.3464 17.5651 44.6844 17.7211 44.9878 17.9205C45.2911 18.1111 45.5338 18.3668 45.7158 18.6875C45.9064 18.9995 46.0018 19.3938 46.0018 19.8705C46.0018 20.3991 45.8501 20.8888 45.5468 21.3395C45.2521 21.7815 44.8058 22.1368 44.2078 22.4055C43.6184 22.6741 42.8731 22.8085 41.9718 22.8085ZM51.3768 22.6265V21.3135L51.2078 20.9885V18.5705C51.2078 18.1805 51.0864 17.8815 50.8438 17.6735C50.6098 17.4568 50.2328 17.3485 49.7128 17.3485C49.3748 17.3485 49.0324 17.4048 48.6858 17.5175C48.3391 17.6215 48.0444 17.7688 47.8018 17.9595L46.9698 16.2825C47.3684 16.0225 47.8451 15.8231 48.3998 15.6845C48.9631 15.5371 49.5221 15.4635 50.0768 15.4635C51.2208 15.4635 52.1048 15.7278 52.7288 16.2565C53.3614 16.7765 53.6778 17.5955 53.6778 18.7135V22.6265H51.3768ZM49.2968 22.7435C48.7334 22.7435 48.2568 22.6481 47.8668 22.4575C47.4768 22.2668 47.1778 22.0068 46.9698 21.6775C46.7704 21.3481 46.6708 20.9798 46.6708 20.5725C46.6708 20.1391 46.7791 19.7665 46.9958 19.4545C47.2211 19.1338 47.5634 18.8911 48.0228 18.7265C48.4821 18.5531 49.0758 18.4665 49.8038 18.4665H51.4678V19.7535H50.1418C49.7431 19.7535 49.4614 19.8185 49.2968 19.9485C49.1408 20.0785 49.0628 20.2518 49.0628 20.4685C49.0628 20.6851 49.1451 20.8585 49.3098 20.9885C49.4744 21.1185 49.6998 21.1835 49.9858 21.1835C50.2544 21.1835 50.4971 21.1185 50.7138 20.9885C50.9391 20.8498 51.1038 20.6418 51.2078 20.3645L51.5458 21.2745C51.4158 21.7598 51.1601 22.1281 50.7788 22.3795C50.4061 22.6221 49.9121 22.7435 49.2968 22.7435ZM58.3828 22.7435C57.4815 22.7435 56.7795 22.5225 56.2768 22.0805C55.7742 21.6298 55.5228 20.9538 55.5228 20.0525V14.0075H57.9928V20.0265C57.9928 20.2778 58.0622 20.4771 58.2008 20.6245C58.3395 20.7631 58.5172 20.8325 58.7338 20.8325C59.0285 20.8325 59.2798 20.7588 59.4878 20.6115L60.0988 22.3405C59.8908 22.4791 59.6352 22.5788 59.3318 22.6395C59.0285 22.7088 58.7122 22.7435 58.3828 22.7435ZM54.4958 17.6865V15.8405H59.6048V17.6865H54.4958ZM64.0153 22.7435C63.4433 22.7435 62.9276 22.6308 62.4683 22.4055C62.0176 22.1801 61.6623 21.8291 61.4023 21.3525C61.151 20.8671 61.0253 20.2561 61.0253 19.5195V15.5805H63.4953V19.1165C63.4953 19.6625 63.595 20.0525 63.7943 20.2865C64.0023 20.5205 64.2926 20.6375 64.6653 20.6375C64.908 20.6375 65.129 20.5811 65.3283 20.4685C65.5276 20.3558 65.688 20.1781 65.8093 19.9355C65.9306 19.6841 65.9913 19.3635 65.9913 18.9735V15.5805H68.4613V22.6265H66.1083V20.6375L66.5633 21.1965C66.3206 21.7165 65.9696 22.1065 65.5103 22.3665C65.051 22.6178 64.5526 22.7435 64.0153 22.7435ZM70.0523 22.6265V15.5805H72.4053V17.6345L72.0543 17.0495C72.2623 16.5208 72.6003 16.1265 73.0683 15.8665C73.5363 15.5978 74.1039 15.4635 74.7713 15.4635V17.6865C74.6586 17.6691 74.5589 17.6605 74.4723 17.6605C74.3943 17.6518 74.3076 17.6475 74.2123 17.6475C73.7096 17.6475 73.3023 17.7861 72.9903 18.0635C72.6783 18.3321 72.5223 18.7741 72.5223 19.3895V22.6265H70.0523ZM80.3796 15.4635C80.9256 15.4635 81.4196 15.5761 81.8616 15.8015C82.3036 16.0181 82.6502 16.3561 82.9016 16.8155C83.1616 17.2748 83.2916 17.8685 83.2916 18.5965V22.6265H80.8216V18.9995C80.8216 18.4968 80.7176 18.1328 80.5096 17.9075C80.3102 17.6735 80.0286 17.5565 79.6646 17.5565C79.4046 17.5565 79.1662 17.6171 78.9496 17.7385C78.7329 17.8511 78.5639 18.0288 78.4426 18.2715C78.3212 18.5141 78.2606 18.8305 78.2606 19.2205V22.6265H75.7906V15.5805H78.1436V17.5825L77.6886 16.9975C77.9572 16.4861 78.3256 16.1048 78.7936 15.8535C79.2616 15.5935 79.7902 15.4635 80.3796 15.4635Z" fill="#AC70E8"/>
</g>
</svg>
