<svg width="81" height="36" viewBox="0 0 81 36" fill="none" xmlns="http://www.w3.org/2000/svg">
<g opacity="0.7">
<rect width="80.7411" height="35.0386" rx="17.5193" fill="#FFE0DE"/>
<ellipse cx="21.2592" cy="17.4893" rx="7.97218" ry="8.07183" fill="#EC574D"/>
<path d="M40.9564 21.5995C40.2111 21.5995 39.4917 21.5085 38.7984 21.3265C38.1137 21.1358 37.5547 20.8931 37.1214 20.5985L37.9664 18.7005C38.3737 18.9605 38.8417 19.1771 39.3704 19.3505C39.9077 19.5151 40.4407 19.5975 40.9694 19.5975C41.3247 19.5975 41.6107 19.5671 41.8274 19.5065C42.0441 19.4371 42.2001 19.3505 42.2954 19.2465C42.3994 19.1338 42.4514 19.0038 42.4514 18.8565C42.4514 18.6485 42.3561 18.4838 42.1654 18.3625C41.9747 18.2411 41.7277 18.1415 41.4244 18.0635C41.1211 17.9855 40.7831 17.9075 40.4104 17.8295C40.0464 17.7515 39.6781 17.6518 39.3054 17.5305C38.9414 17.4091 38.6077 17.2531 38.3044 17.0625C38.0011 16.8631 37.7541 16.6075 37.5634 16.2955C37.3727 15.9748 37.2774 15.5718 37.2774 15.0865C37.2774 14.5405 37.4247 14.0465 37.7194 13.6045C38.0227 13.1625 38.4734 12.8071 39.0714 12.5385C39.6694 12.2698 40.4147 12.1355 41.3074 12.1355C41.9054 12.1355 42.4904 12.2048 43.0624 12.3435C43.6431 12.4735 44.1587 12.6685 44.6094 12.9285L43.8164 14.8395C43.3831 14.6055 42.9541 14.4321 42.5294 14.3195C42.1047 14.1981 41.6931 14.1375 41.2944 14.1375C40.9391 14.1375 40.6531 14.1765 40.4364 14.2545C40.2197 14.3238 40.0637 14.4191 39.9684 14.5405C39.8731 14.6618 39.8254 14.8005 39.8254 14.9565C39.8254 15.1558 39.9164 15.3161 40.0984 15.4375C40.2891 15.5501 40.5361 15.6455 40.8394 15.7235C41.1514 15.7928 41.4894 15.8665 41.8534 15.9445C42.2261 16.0225 42.5944 16.1221 42.9584 16.2435C43.3311 16.3561 43.6691 16.5121 43.9724 16.7115C44.2757 16.9021 44.5184 17.1578 44.7004 17.4785C44.8911 17.7905 44.9864 18.1848 44.9864 18.6615C44.9864 19.1901 44.8347 19.6798 44.5314 20.1305C44.2367 20.5725 43.7904 20.9278 43.1924 21.1965C42.6031 21.4651 41.8577 21.5995 40.9564 21.5995ZM49.0224 21.5345C48.4504 21.5345 47.9347 21.4218 47.4754 21.1965C47.0247 20.9711 46.6694 20.6201 46.4094 20.1435C46.158 19.6581 46.0324 19.0471 46.0324 18.3105V14.3715H48.5024V17.9075C48.5024 18.4535 48.602 18.8435 48.8014 19.0775C49.0094 19.3115 49.2997 19.4285 49.6724 19.4285C49.915 19.4285 50.136 19.3721 50.3354 19.2595C50.5347 19.1468 50.695 18.9691 50.8164 18.7265C50.9377 18.4751 50.9984 18.1545 50.9984 17.7645V14.3715H53.4684V21.4175H51.1154V19.4285L51.5704 19.9875C51.3277 20.5075 50.9767 20.8975 50.5174 21.1575C50.058 21.4088 49.5597 21.5345 49.0224 21.5345ZM59.6484 14.2545C60.1944 14.2545 60.6884 14.3671 61.1304 14.5925C61.5724 14.8091 61.919 15.1471 62.1704 15.6065C62.4304 16.0658 62.5604 16.6595 62.5604 17.3875V21.4175H60.0904V17.7905C60.0904 17.2878 59.9864 16.9238 59.7784 16.6985C59.579 16.4645 59.2974 16.3475 58.9334 16.3475C58.6734 16.3475 58.435 16.4081 58.2184 16.5295C58.0017 16.6421 57.8327 16.8198 57.7114 17.0625C57.59 17.3051 57.5294 17.6215 57.5294 18.0115V21.4175H55.0594V14.3715H57.4124V16.3735L56.9574 15.7885C57.226 15.2771 57.5944 14.8958 58.0624 14.6445C58.5304 14.3845 59.059 14.2545 59.6484 14.2545Z" fill="#EC574D"/>
</g>
</svg>
