<svg width="126" height="35" viewBox="0 0 126 35" fill="none" xmlns="http://www.w3.org/2000/svg">
<g opacity="0.7">
<rect width="126" height="35" rx="17.5" fill="#FFE9FE"/>
<circle cx="21.6052" cy="17.5541" r="8.10195" fill="#F681C7"/>
<path d="M40.336 22.4521L37.385 13.3521H40.037L42.52 21.2301H41.181L43.794 13.3521H46.16L48.63 21.2301H47.343L49.904 13.3521H52.361L49.41 22.4521H46.654L44.548 15.7571H45.289L43.092 22.4521H40.336ZM57.9457 15.2891C58.4917 15.2891 58.9857 15.4018 59.4277 15.6271C59.8697 15.8438 60.2164 16.1818 60.4677 16.6411C60.7277 17.1005 60.8577 17.6941 60.8577 18.4221V22.4521H58.3877V18.8251C58.3877 18.3225 58.2837 17.9585 58.0757 17.7331C57.8764 17.4991 57.5947 17.3821 57.2307 17.3821C56.9707 17.3821 56.7324 17.4428 56.5157 17.5641C56.2991 17.6768 56.1301 17.8545 56.0087 18.0971C55.8874 18.3398 55.8267 18.6561 55.8267 19.0461V22.4521H53.3567V12.8061H55.8267V17.4081L55.2547 16.8231C55.5234 16.3118 55.8917 15.9305 56.3597 15.6791C56.8277 15.4191 57.3564 15.2891 57.9457 15.2891ZM62.4085 22.4521V15.4061H64.8785V22.4521H62.4085ZM63.6435 14.6261C63.1928 14.6261 62.8288 14.5005 62.5515 14.2491C62.2741 13.9978 62.1355 13.6858 62.1355 13.3131C62.1355 12.9405 62.2741 12.6285 62.5515 12.3771C62.8288 12.1258 63.1928 12.0001 63.6435 12.0001C64.0941 12.0001 64.4581 12.1215 64.7355 12.3641C65.0128 12.5981 65.1515 12.9015 65.1515 13.2741C65.1515 13.6641 65.0128 13.9891 64.7355 14.2491C64.4668 14.5005 64.1028 14.6261 63.6435 14.6261ZM69.6297 22.5691C68.7283 22.5691 68.0263 22.3481 67.5237 21.9061C67.021 21.4555 66.7697 20.7795 66.7697 19.8781V13.8331H69.2397V19.8521C69.2397 20.1035 69.309 20.3028 69.4477 20.4501C69.5863 20.5888 69.764 20.6581 69.9807 20.6581C70.2753 20.6581 70.5267 20.5845 70.7347 20.4371L71.3457 22.1661C71.1377 22.3048 70.882 22.4045 70.5787 22.4651C70.2753 22.5345 69.959 22.5691 69.6297 22.5691ZM65.7427 17.5121V15.6661H70.8517V17.5121H65.7427ZM75.787 22.5691C74.955 22.5691 74.227 22.4131 73.603 22.1011C72.9877 21.7805 72.5067 21.3471 72.16 20.8011C71.822 20.2465 71.653 19.6181 71.653 18.9161C71.653 18.2141 71.8177 17.5901 72.147 17.0441C72.485 16.4895 72.9487 16.0605 73.538 15.7571C74.1273 15.4451 74.7903 15.2891 75.527 15.2891C76.2203 15.2891 76.853 15.4321 77.425 15.7181C77.997 15.9955 78.452 16.4071 78.79 16.9531C79.128 17.4991 79.297 18.1621 79.297 18.9421C79.297 19.0288 79.2927 19.1285 79.284 19.2411C79.2753 19.3538 79.2667 19.4578 79.258 19.5531H73.681V18.2531H77.945L77.009 18.6171C77.0177 18.2965 76.957 18.0191 76.827 17.7851C76.7057 17.5511 76.5323 17.3691 76.307 17.2391C76.0903 17.1091 75.8347 17.0441 75.54 17.0441C75.2453 17.0441 74.9853 17.1091 74.76 17.2391C74.5433 17.3691 74.3743 17.5555 74.253 17.7981C74.1317 18.0321 74.071 18.3095 74.071 18.6301V19.0071C74.071 19.3538 74.1403 19.6528 74.279 19.9041C74.4263 20.1555 74.6343 20.3505 74.903 20.4891C75.1717 20.6191 75.4923 20.6841 75.865 20.6841C76.2117 20.6841 76.5063 20.6365 76.749 20.5411C77.0003 20.4371 77.2473 20.2811 77.49 20.0731L78.79 21.4251C78.452 21.7978 78.036 22.0838 77.542 22.2831C77.048 22.4738 76.463 22.5691 75.787 22.5691ZM88.808 15.2891C89.354 15.2891 89.848 15.4018 90.29 15.6271C90.732 15.8438 91.0787 16.1818 91.33 16.6411C91.59 17.1005 91.72 17.6941 91.72 18.4221V22.4521H89.25V18.8251C89.25 18.3225 89.146 17.9585 88.938 17.7331C88.7387 17.4991 88.457 17.3821 88.093 17.3821C87.833 17.3821 87.5947 17.4428 87.378 17.5641C87.1614 17.6768 86.9924 17.8545 86.871 18.0971C86.7497 18.3398 86.689 18.6561 86.689 19.0461V22.4521H84.219V12.8061H86.689V17.4081L86.117 16.8231C86.3857 16.3118 86.754 15.9305 87.222 15.6791C87.69 15.4191 88.2187 15.2891 88.808 15.2891ZM96.8957 22.5691C96.1243 22.5691 95.4397 22.4131 94.8417 22.1011C94.2437 21.7891 93.7713 21.3601 93.4247 20.8141C93.0867 20.2595 92.9177 19.6268 92.9177 18.9161C92.9177 18.2055 93.0867 17.5771 93.4247 17.0311C93.7713 16.4851 94.2437 16.0605 94.8417 15.7571C95.4397 15.4451 96.1243 15.2891 96.8957 15.2891C97.667 15.2891 98.3517 15.4451 98.9497 15.7571C99.5563 16.0605 100.029 16.4851 100.367 17.0311C100.705 17.5771 100.874 18.2055 100.874 18.9161C100.874 19.6268 100.705 20.2595 100.367 20.8141C100.029 21.3601 99.5563 21.7891 98.9497 22.1011C98.3517 22.4131 97.667 22.5691 96.8957 22.5691ZM96.8957 20.6061C97.1817 20.6061 97.433 20.5411 97.6497 20.4111C97.875 20.2811 98.0527 20.0905 98.1827 19.8391C98.3127 19.5791 98.3777 19.2715 98.3777 18.9161C98.3777 18.5608 98.3127 18.2618 98.1827 18.0191C98.0527 17.7678 97.875 17.5771 97.6497 17.4471C97.433 17.3171 97.1817 17.2521 96.8957 17.2521C96.6183 17.2521 96.367 17.3171 96.1417 17.4471C95.925 17.5771 95.7473 17.7678 95.6087 18.0191C95.4787 18.2618 95.4137 18.5608 95.4137 18.9161C95.4137 19.2715 95.4787 19.5791 95.6087 19.8391C95.7473 20.0905 95.925 20.2811 96.1417 20.4111C96.367 20.5411 96.6183 20.6061 96.8957 20.6061ZM102.018 22.4521V12.8061H104.488V22.4521H102.018ZM109.785 22.5691C108.953 22.5691 108.225 22.4131 107.601 22.1011C106.986 21.7805 106.505 21.3471 106.158 20.8011C105.82 20.2465 105.651 19.6181 105.651 18.9161C105.651 18.2141 105.816 17.5901 106.145 17.0441C106.483 16.4895 106.947 16.0605 107.536 15.7571C108.125 15.4451 108.788 15.2891 109.525 15.2891C110.218 15.2891 110.851 15.4321 111.423 15.7181C111.995 15.9955 112.45 16.4071 112.788 16.9531C113.126 17.4991 113.295 18.1621 113.295 18.9421C113.295 19.0288 113.291 19.1285 113.282 19.2411C113.273 19.3538 113.265 19.4578 113.256 19.5531H107.679V18.2531H111.943L111.007 18.6171C111.016 18.2965 110.955 18.0191 110.825 17.7851C110.704 17.5511 110.53 17.3691 110.305 17.2391C110.088 17.1091 109.833 17.0441 109.538 17.0441C109.243 17.0441 108.983 17.1091 108.758 17.2391C108.541 17.3691 108.372 17.5555 108.251 17.7981C108.13 18.0321 108.069 18.3095 108.069 18.6301V19.0071C108.069 19.3538 108.138 19.6528 108.277 19.9041C108.424 20.1555 108.632 20.3505 108.901 20.4891C109.17 20.6191 109.49 20.6841 109.863 20.6841C110.21 20.6841 110.504 20.6365 110.747 20.5411C110.998 20.4371 111.245 20.2811 111.488 20.0731L112.788 21.4251C112.45 21.7978 112.034 22.0838 111.54 22.2831C111.046 22.4738 110.461 22.5691 109.785 22.5691Z" fill="#F681C7"/>
</g>
</svg>
