<svg width="30" height="30" viewBox="0 0 30 30" fill="none" xmlns="http://www.w3.org/2000/svg">
<path d="M23.75 8.12503H22.15L21.75 6.87503C21.4907 6.14157 21.0097 5.50691 20.3736 5.05898C19.7376 4.61105 18.9779 4.37203 18.2 4.37503H11.8C11.0144 4.3765 10.2492 4.62463 9.61221 5.08441C8.97525 5.54419 8.49876 6.19239 8.25 6.93753L7.85 8.18753H6.25C5.25544 8.18753 4.30161 8.58262 3.59835 9.28588C2.89509 9.98914 2.5 10.943 2.5 11.9375V21.9375C2.5 22.9321 2.89509 23.8859 3.59835 24.5892C4.30161 25.2924 5.25544 25.6875 6.25 25.6875H23.75C24.7446 25.6875 25.6984 25.2924 26.4017 24.5892C27.1049 23.8859 27.5 22.9321 27.5 21.9375V11.9375C27.5083 11.4398 27.4174 10.9455 27.2327 10.4833C27.048 10.0211 26.773 9.60025 26.424 9.24538C26.0749 8.89052 25.6587 8.60869 25.1996 8.41634C24.7406 8.22399 24.2478 8.12496 23.75 8.12503ZM25 21.875C25 22.2065 24.8683 22.5245 24.6339 22.7589C24.3995 22.9933 24.0815 23.125 23.75 23.125H6.25C5.91848 23.125 5.60054 22.9933 5.36612 22.7589C5.1317 22.5245 5 22.2065 5 21.875V11.875C5 11.5435 5.1317 11.2256 5.36612 10.9911C5.60054 10.7567 5.91848 10.625 6.25 10.625H8.75C9.02258 10.6393 9.29233 10.5639 9.51804 10.4104C9.74376 10.2569 9.91303 10.0338 10 9.77503L10.675 7.72503C10.7589 7.47675 10.9186 7.26111 11.1317 7.10858C11.3448 6.95605 11.6004 6.87435 11.8625 6.87503H18.2625C18.5246 6.87435 18.7802 6.95605 18.9933 7.10858C19.2064 7.26111 19.3661 7.47675 19.45 7.72503L20.125 9.77503C20.2052 10.0135 20.3555 10.2221 20.5562 10.3738C20.7569 10.5254 20.9987 10.613 21.25 10.625H23.75C24.0815 10.625 24.3995 10.7567 24.6339 10.9911C24.8683 11.2256 25 11.5435 25 11.875V21.875ZM15 10.625C14.0111 10.625 13.0444 10.9183 12.2221 11.4677C11.3999 12.0171 10.759 12.798 10.3806 13.7116C10.0022 14.6252 9.90315 15.6306 10.0961 16.6005C10.289 17.5704 10.7652 18.4613 11.4645 19.1606C12.1637 19.8598 13.0546 20.336 14.0245 20.529C14.9945 20.7219 15.9998 20.6229 16.9134 20.2444C17.827 19.866 18.6079 19.2251 19.1573 18.4029C19.7068 17.5806 20 16.6139 20 15.625C20 14.2989 19.4732 13.0272 18.5355 12.0895C17.5979 11.1518 16.3261 10.625 15 10.625ZM15 18.125C14.5055 18.125 14.0222 17.9784 13.6111 17.7037C13.2 17.429 12.8795 17.0386 12.6903 16.5817C12.5011 16.1249 12.4516 15.6223 12.548 15.1373C12.6445 14.6523 12.8826 14.2069 13.2322 13.8573C13.5819 13.5076 14.0273 13.2695 14.5123 13.1731C14.9972 13.0766 15.4999 13.1261 15.9567 13.3153C16.4135 13.5045 16.804 13.825 17.0787 14.2361C17.3534 14.6472 17.5 15.1306 17.5 15.625C17.5 16.2881 17.2366 16.924 16.7678 17.3928C16.2989 17.8616 15.663 18.125 15 18.125Z" fill="white"/>
</svg>
