<svg width="168" height="37" viewBox="0 0 168 37" fill="none" xmlns="http://www.w3.org/2000/svg">
<path d="M43.71 29V8H53.82C55.78 8 57.47 8.32 58.89 8.96C60.33 9.6 61.44 10.52 62.22 11.72C63 12.9 63.39 14.3 63.39 15.92C63.39 17.54 63 18.94 62.22 20.12C61.44 21.3 60.33 22.22 58.89 22.88C57.47 23.52 55.78 23.84 53.82 23.84H47.64L50.79 20.81V29H43.71ZM50.79 21.59L47.64 18.38H53.37C54.35 18.38 55.07 18.16 55.53 17.72C56.01 17.28 56.25 16.68 56.25 15.92C56.25 15.16 56.01 14.56 55.53 14.12C55.07 13.68 54.35 13.46 53.37 13.46H47.64L50.79 10.25V21.59ZM65.712 29V8H72.792V23.51H82.272V29H65.712ZM82.2405 29L91.4205 8H98.3805L107.561 29H100.241L93.4605 11.36H96.2205L89.4405 29H82.2405ZM87.7005 25.34L89.5005 20.24H99.1605L100.961 25.34H87.7005ZM114.089 29L105.209 8H112.829L120.059 25.73H115.529L122.969 8H129.929L121.049 29H114.089ZM137.114 15.8H146.474V20.9H137.114V15.8ZM137.594 23.66H148.094V29H130.634V8H147.704V13.34H137.594V23.66ZM150.819 29V8H157.899V23.51H167.379V29H150.819Z" fill="white"/>
<path d="M33.2524 4.77814C31.5076 2.87476 26.9616 3.95914 26.9616 3.95914C26.3952 4.10326 25.796 4.28714 25.1724 4.50381C22.0927 2.76642 18.437 3.01192 18.437 3.01192C10.1506 3.01192 8.12846 10.375 8.12846 10.375C7.91249 11.1194 7.79497 11.84 7.74733 12.5278C8.74886 12.1601 9.74615 12.4215 9.74615 12.4215C9.74615 12.4215 8.94683 12.6481 7.73569 13.7583C7.73569 13.7633 7.73569 13.7683 7.73569 13.7732C7.69546 13.7991 7.67322 13.814 7.67322 13.814C4.32774 16.5016 1.39092 22.6332 1.39092 22.6332C-0.0531394 27.1794 2.96838 28.6594 2.96838 28.6594C6.68546 29.6195 9.74086 28.5023 9.74086 28.5023L11.5216 27.3872C8.61229 28.5282 5.23293 27.7639 5.23293 27.7639C3.17482 27.1456 3.12824 25.3794 3.12824 25.3794C3.51149 21.7227 6.93955 18.2589 8.36773 16.9608C8.75097 18.0551 9.16387 18.7101 9.16387 18.7101C10.3972 21.9513 14.6384 27.4617 14.6384 27.4617C16.1671 29.6841 18.6339 32 18.6339 32C18.979 31.7217 22.4812 27.416 22.4812 27.416C25.1936 24.4063 27.709 19.22 27.709 19.22C29.4972 16.1199 29.3363 11.7188 29.3363 11.7188C29.188 8.40898 27.7948 6.35154 26.0522 5.07433C26.6239 4.92922 27.0982 4.82784 27.0982 4.82784C29.7386 3.92336 32.0359 4.86262 32.0359 4.86262C33.8855 5.79792 33.5742 8.27977 33.5742 8.27977C34.6943 6.28296 33.2503 4.78013 33.2503 4.78013L33.2524 4.77814ZM18.4857 16.6716C16.3609 16.6716 14.6384 15.0544 14.6384 13.0596C14.6384 11.0648 16.3609 9.44764 18.4857 9.44764C20.6105 9.44764 22.333 11.0648 22.333 13.0596C22.333 15.0544 20.6105 16.6716 18.4857 16.6716Z" fill="white" stroke="white" stroke-miterlimit="10"/>
</svg>
